HIERARCHY
ROOT hip
{
	OFFSET 0.000000 0.000000 0.000000 
	CHANNELS 6 Xposition Yposition Zposition Xrotation Zrotation Yrotation
	JOINT abdomen
	{
		OFFSET 0.000000 3.402643 0.000000 
		CHANNELS 3 Xrotation Zrotation Yrotation
		JOINT chest
		{
			OFFSET 0.000000 8.438565 -0.680529 
			CHANNELS 3 Xrotation Zrotation Yrotation
			JOINT neck
			{
				OFFSET 0.000000 10.207942 -0.272212 
				CHANNELS 3 Xrotation Zrotation Yrotation
				JOINT head
				{
					OFFSET 0.000000 3.130431 0.000000 
					CHANNELS 3 Xrotation Zrotation Yrotation
					End Site
					{
						OFFSET 0.000000 3.130435 0.000000 
					}
				}
			}
			JOINT lCollar
			{
				OFFSET 3.470700 6.669187 -0.816635 
				CHANNELS 3 Yrotation Zrotation Xrotation
				JOINT lShldr
				{
					OFFSET 3.198488 0.000000 0.000000 
					CHANNELS 3 Zrotation Yrotation Xrotation
					JOINT lForeArm
					{
						OFFSET 10.139888 0.000000 0.000000 
						CHANNELS 3 Yrotation Zrotation Xrotation
						JOINT lHand
						{
							OFFSET 8.370511 0.000000 0.000000 
							CHANNELS 3 Zrotation Yrotation Xrotation
							End Site
							{
								OFFSET 4.083176 0.000000 0.000000 
							}
						}
					}
				}
			}
			JOINT rCollar
			{
				OFFSET -3.470700 6.669187 -0.816635 
				CHANNELS 3 Yrotation Zrotation Xrotation
				JOINT rShldr
				{
					OFFSET -3.198488 0.000000 0.000000 
					CHANNELS 3 Zrotation Yrotation Xrotation
					JOINT rForeArm
					{
						OFFSET -10.139888 0.000000 0.000000 
						CHANNELS 3 Yrotation Zrotation Xrotation
						JOINT rHand
						{
							OFFSET -8.370511 0.000000 0.000000 
							CHANNELS 3 Zrotation Yrotation Xrotation
							End Site
							{
								OFFSET -4.083176 0.000000 0.000000 
							}
						}
					}
				}
			}
		}
	}
	JOINT lThigh
	{
		OFFSET 5.308129 -1.633274 1.361059 
		CHANNELS 3 Xrotation Zrotation Yrotation
		JOINT lShin
		{
			OFFSET -2.041588 -20.007561 0.000000 
			CHANNELS 3 Xrotation Zrotation Yrotation
			JOINT lFoot
			{
				OFFSET 0.000000 -19.190928 -1.224953 
				CHANNELS 3 Xrotation Yrotation Zrotation
				End Site
				{
					OFFSET 0.000000 -2.449906 4.627600 
				}
			}
		}
	}
	JOINT rThigh
	{
		OFFSET -5.308129 -1.633274 1.361059 
		CHANNELS 3 Xrotation Zrotation Yrotation
		JOINT rShin
		{
			OFFSET 2.041588 -20.007561 0.000000 
			CHANNELS 3 Xrotation Zrotation Yrotation
			JOINT rFoot
			{
				OFFSET 0.000000 -19.190928 -1.224953 
				CHANNELS 3 Xrotation Yrotation Zrotation
				End Site
				{
					OFFSET 0.000000 -2.449906 4.627600 
				}
			}
		}
	}
}
MOTION
Frames: 19
Frame Time: 0.033333
-16.320833 43.774776 28.626631 -7.688480 2.992970 -5.685915 0.000000 0.000000 0.000000 23.064600 -3.742720 -0.035200 12.518700 -5.306330 7.736460 -16.355600 2.387830 0.784201 11.342450 9.300490 -6.496269 -24.973700 -11.588500 -76.569504 -41.814899 0.276873 5.710120 -13.131500 9.556090 -18.014500 -2.120291 -11.174177 1.327428 41.172901 17.216299 -40.691502 43.301498 -30.661200 38.556702 24.738600 -6.822380 -45.271301 -8.622747 15.201559 25.352980 27.938572 -2.130458 0.949721 -8.613627 9.880248 9.949234 -3.859608 -18.852076 -31.377649 32.317577 0.716591 -1.494623 -11.827867 -14.139447 3.672482 
-14.499495 43.529869 29.232920 -7.121810 3.862540 -1.235171 0.000000 0.000000 0.000000 22.039700 -2.414260 -0.789819 12.377600 -4.355200 5.805800 -15.538500 2.715040 -0.857211 9.843884 9.518627 -6.215529 -25.009701 -13.411700 -77.316902 -42.328300 0.124335 5.871910 -13.211100 9.766450 -18.242500 -3.522111 -11.024572 0.059311 41.677601 12.200800 -40.290401 44.494499 -29.142799 37.889999 24.012400 -7.767020 -45.576199 -7.362692 12.697505 25.483730 23.607798 -2.788886 -0.932038 -8.114911 10.379542 7.295597 -5.080251 -21.945826 -28.538925 36.285412 0.043144 -4.962162 -8.216814 -15.810289 4.471129 
-12.656025 43.373791 29.652843 -7.205200 5.271810 3.036600 0.000000 0.000000 0.000000 22.364401 -1.818950 -1.636140 11.528300 -3.467500 3.908970 -14.925500 3.122760 -2.484200 8.559486 9.649252 -6.231161 -25.148399 -15.613700 -77.675697 -42.586601 -0.028378 6.178490 -12.923300 9.903260 -18.356400 -4.623912 -10.854076 -0.998604 42.322899 7.257910 -40.549999 45.403400 -27.991199 37.152699 23.203899 -8.556450 -45.760700 -7.304846 9.736375 25.070946 23.393147 -3.270678 -3.508089 -8.053790 10.481206 4.101997 -7.705535 -25.241556 -23.091169 42.831440 -1.442080 -8.274009 -2.926061 -16.598145 2.645801 
-10.888865 43.221615 29.902235 -7.788200 6.857240 7.022879 0.000000 0.000000 0.000000 23.771400 -1.745980 -2.502530 10.301500 -2.425560 2.196740 -14.660000 3.573800 -4.000970 7.540044 10.128357 -6.276364 -25.107901 -17.862400 -77.499603 -42.445999 -0.079279 6.528930 -12.512300 10.231400 -18.461500 -5.469184 -10.295727 -1.751792 43.034000 3.008200 -41.398701 45.780899 -27.342600 36.363602 22.637300 -9.086890 -45.852798 -7.596354 6.530159 24.000380 25.422901 -3.609321 -5.359678 -9.397285 10.049705 3.945583 -11.572131 -27.738834 -16.828859 51.311172 -3.916701 -8.831451 2.759956 -15.619761 -1.690509 
-9.249469 43.040813 30.056698 -8.541150 8.088160 10.837228 0.000000 0.000000 0.000000 25.687300 -1.717680 -3.303600 9.039840 -1.025620 0.765553 -14.719600 4.000580 -5.399600 6.597699 11.060907 -6.105926 -24.752800 -19.845400 -76.785400 -41.993801 0.119654 6.699540 -12.239400 10.759300 -18.586700 -6.292774 -9.232120 -2.389909 43.799400 -0.226184 -42.294601 45.583099 -27.067699 35.478802 22.328100 -9.683240 -46.001202 -8.114401 3.680742 21.725416 28.635624 -3.775823 -6.174373 -11.386048 9.524668 4.954291 -15.984946 -28.539885 -11.536777 60.165810 -7.128623 -5.435162 6.525121 -13.423172 -6.147507 
-7.778051 42.835247 30.197121 -9.074070 8.828430 14.499298 0.000000 0.000000 0.000000 27.525200 -1.693740 -3.986440 7.785440 0.861627 -0.399876 -14.851800 4.342490 -6.752870 5.619637 12.393184 -5.751951 -23.985100 -21.429199 -75.839401 -41.320301 0.606540 6.649130 -12.252800 11.171500 -18.709900 -7.292199 -7.672565 -3.243474 44.662300 -2.460900 -42.794498 45.000099 -27.028099 34.551201 22.197300 -10.570000 -46.300499 -8.765030 1.139912 18.288355 31.766596 -3.795973 -6.286519 -13.688085 9.447515 6.980713 -20.787191 -27.346926 -7.681043 68.506989 -10.272060 0.149963 7.028677 -12.132940 -8.239054 
-6.501069 42.626961 30.364618 -9.083040 9.272160 17.933403 0.000000 0.000000 0.000000 28.994600 -1.859640 -4.597730 6.492200 2.922520 -1.393950 -14.778200 4.798750 -8.053710 4.669245 13.949513 -5.319452 -23.008499 -22.706900 -75.029404 -40.537701 1.186830 6.373900 -12.463400 11.156500 -18.720301 -8.414374 -5.922349 -4.330822 45.838200 -3.900940 -42.930401 44.294701 -27.184999 33.763100 22.176901 -11.501400 -46.605801 -9.487150 -1.221977 14.717736 34.248943 -3.712866 -6.509465 -15.844816 9.862839 9.244040 -26.335594 -24.489691 -5.278578 75.909348 -12.595347 4.629809 5.784213 -12.839225 -8.232622 
-5.400728 42.416534 30.556263 -8.598320 9.547350 21.155706 0.000000 0.000000 0.000000 30.240801 -2.074200 -5.197780 4.873900 4.653670 -2.477520 -14.332600 5.564790 -9.220300 3.901937 15.502829 -5.244803 -22.078899 -23.900900 -74.507301 -39.702000 1.608370 6.007950 -12.568300 10.784200 -18.612801 -9.491645 -4.440568 -5.613978 47.472099 -4.736960 -43.037601 43.458599 -27.604099 33.179600 22.172199 -12.032900 -46.735199 -10.246471 -3.300714 11.865949 36.142586 -3.554590 -7.603493 -17.689550 10.648215 11.271602 -32.680077 -20.650383 -4.888739 82.086731 -14.003034 5.896558 4.671318 -14.108666 -7.747582 
-4.431766 42.189392 30.756903 -7.850240 9.708550 24.477407 0.000000 0.000000 0.000000 31.637300 -1.905990 -5.831290 2.713910 5.783020 -3.919650 -13.544800 6.645350 -10.231300 3.265319 16.849155 -5.812470 -21.310301 -25.096300 -74.279999 -38.786400 1.760000 5.753580 -12.440000 10.258000 -18.426800 -10.595553 -3.446229 -7.098752 49.340698 -5.321720 -43.291302 42.417198 -28.195299 32.511200 22.005699 -12.154400 -46.628899 -11.101133 -4.950815 9.951401 37.950085 -3.281815 -9.907953 -19.322889 11.675198 13.082996 -39.274635 -16.590342 -7.031153 86.520241 -14.696414 4.258008 4.008925 -14.353127 -7.683166 
-3.562481 41.929531 30.968994 -7.012830 9.809190 28.105104 0.000000 0.000000 0.000000 33.360001 -1.234280 -6.571810 -0.032367 6.351640 -5.781180 -12.621300 7.766480 -11.141700 2.608641 18.029385 -6.943349 -20.575600 -26.363300 -74.456299 -37.804798 1.773770 5.722500 -12.137800 9.733320 -18.220699 -11.840616 -2.810102 -8.918732 51.098301 -6.051440 -43.652000 41.312599 -28.762400 31.506201 21.576200 -12.192900 -46.401199 -12.299797 -6.121633 9.274554 40.568329 -2.771092 -13.105380 -20.534079 12.454796 14.657019 -45.462032 -12.946043 -11.498199 88.753113 -14.871473 1.497529 3.370957 -13.350085 -7.848969 
-2.783168 41.606411 31.212435 -6.060310 10.061000 32.057903 0.000000 0.000000 0.000000 35.205002 -0.385765 -7.454850 -2.993720 6.688160 -7.901210 -11.853200 8.765260 -12.002300 1.861931 19.248394 -8.212750 -19.673300 -27.797600 -75.142998 -36.698299 1.881280 5.857230 -11.834500 9.313380 -18.034500 -13.232897 -2.234049 -10.808382 52.620800 -7.155330 -44.194099 40.586300 -29.146299 30.167101 20.966700 -12.587300 -46.287102 -14.395756 -6.785028 10.552626 44.990524 -2.030462 -16.356396 -20.784033 12.346630 16.291067 -50.745140 -10.035934 -17.342510 88.400024 -14.568737 -0.846573 2.874310 -11.780984 -7.499008 
-2.075493 41.152027 31.512150 -4.922230 10.677200 36.087204 0.000000 0.000000 0.000000 36.921398 0.144122 -8.525810 -5.508040 7.122350 -10.022000 -11.453700 9.493270 -12.969800 1.097081 20.826588 -9.083792 -18.534100 -29.493799 -76.353401 -35.452900 2.295310 6.051670 -11.577200 9.178750 -17.966900 -14.712330 -1.520741 -12.469425 53.968102 -8.628510 -45.022800 40.886002 -29.408800 28.997101 20.409700 -13.599000 -46.427101 -17.630945 -6.805877 14.535143 51.918087 -1.181238 -18.607632 -19.335171 10.981586 18.391766 -54.529568 -7.938571 -23.416094 85.320076 -13.593422 -2.462398 3.209961 -10.814320 -6.418948 
-1.372582 40.471500 31.896572 -3.540760 11.717300 40.034908 0.000000 0.000000 0.000000 38.149700 0.025104 -9.780760 -6.791960 7.935790 -11.950900 -11.550300 9.777930 -14.236100 0.413654 22.968214 -9.206833 -17.210400 -31.524500 -77.824997 -34.062901 3.118220 6.040550 -11.303500 9.519220 -18.013700 -16.231300 -0.571961 -13.574701 55.117401 -10.336600 -46.305801 42.732201 -29.705799 28.482401 20.181499 -15.161100 -46.880001 -21.446520 -6.085579 21.379099 60.802227 -0.084935 -19.021524 -16.007505 9.020200 21.571644 -56.069309 -6.647009 -28.815113 79.921448 -11.572229 -3.683167 4.279543 -11.259094 -5.553185 
-0.565217 39.500191 32.398949 -1.859500 13.016000 43.823708 0.000000 0.000000 0.000000 38.451698 -0.680492 -11.127200 -6.225800 9.066430 -13.578700 -12.026300 9.503310 -15.907900 -0.259477 25.409929 -8.562927 -15.838200 -33.809799 -79.141602 -32.619999 4.238720 5.519980 -10.815500 10.408100 -18.180201 -17.734760 0.372062 -14.021640 55.883900 -12.122500 -48.403999 46.293900 -29.990101 28.935101 20.327900 -16.746599 -47.498299 -24.527761 -5.098971 29.977676 69.729370 1.584903 -17.131710 -12.446616 7.463116 25.420172 -55.252205 -6.034381 -33.369564 73.392845 -8.915668 -4.575565 4.815958 -12.742969 -6.418291 
0.431426 38.243011 33.031750 0.077707 14.100500 47.257809 0.000000 0.000000 0.000000 37.570999 -1.615480 -12.361900 -3.936420 10.186800 -14.721100 -12.541900 8.858140 -17.836201 -0.793738 27.644224 -7.689606 -14.729800 -36.150299 -80.003601 -31.386400 5.379850 4.626390 -10.140800 11.586000 -18.359800 -18.938810 1.043791 -13.997394 56.114700 -13.776400 -51.798500 51.337399 -29.774799 30.475100 20.566200 -17.725800 -48.014801 -26.021446 -4.631056 38.186584 77.207176 4.043727 -14.163424 -11.628542 6.377467 27.791653 -52.895649 -5.572267 -36.961922 67.393303 -6.533853 -5.002829 3.104252 -13.841090 -10.086552 
1.606009 36.787750 33.747234 1.909420 14.635500 49.968006 0.000000 0.000000 0.000000 35.793800 -2.387210 -13.162100 -0.867269 10.902700 -15.290200 -12.781700 8.198600 -19.685699 -0.973821 29.254284 -7.115396 -14.048600 -38.317902 -80.504303 -30.771000 6.326920 3.768440 -9.541630 12.789400 -18.553400 -19.613688 1.177493 -13.916460 55.806499 -15.023700 -56.575199 57.163300 -28.580299 32.973801 20.694599 -17.794300 -48.291199 -26.350817 -4.819936 44.099007 83.258163 6.834384 -12.767914 -13.653447 5.785960 28.792561 -50.414806 -4.604822 -38.925137 63.467960 -5.167183 -5.209661 -2.277193 -13.354466 -16.439131 
2.838226 35.299191 34.431149 3.065350 14.786400 51.615807 0.000000 0.000000 0.000000 34.092201 -2.716140 -13.323900 1.813380 11.090300 -15.417800 -12.720700 7.855180 -21.135900 -0.811885 29.997507 -6.850595 -13.582300 -39.997799 -81.012398 -31.078600 7.006080 3.284870 -9.149090 13.823300 -18.708799 -19.631283 0.873818 -13.819220 55.115398 -15.504200 -62.262798 62.922901 -26.197500 35.804699 20.744200 -17.160000 -48.376499 -26.033203 -4.894059 47.552959 88.608261 9.703766 -13.985554 -16.520119 5.590617 28.637888 -48.793251 -2.993322 -38.759888 62.416504 -4.951344 -6.219416 -10.852519 -11.388014 -23.558958 
3.971762 33.971870 34.972168 3.166840 15.015400 52.383106 0.000000 0.000000 0.000000 33.322899 -2.534730 -12.992400 3.547380 11.055200 -15.384000 -12.703500 7.888220 -22.102100 -0.608918 29.998600 -6.513676 -13.066300 -40.980900 -81.821503 -32.201599 7.342840 3.362020 -8.848170 14.531100 -18.827000 -19.239122 0.525555 -13.488467 54.378201 -15.026300 -68.043404 68.034798 -22.771099 38.249599 20.714199 -16.471399 -48.454300 -25.224306 -4.384752 49.898026 93.617432 12.380158 -16.306982 -18.288887 5.838696 30.425220 -48.366859 -1.375861 -37.224865 64.474716 -5.606925 -8.759172 -19.434517 -9.282586 -28.179243 
4.911865 32.956928 35.348278 2.396600 15.564700 52.782707 0.000000 0.000000 0.000000 33.523399 -2.010830 -12.436900 4.802160 11.020800 -15.326000 -12.953700 8.107530 -22.678900 -0.743063 29.841671 -5.724417 -12.621000 -41.341599 -82.721199 -33.712898 7.181730 3.846810 -8.499300 14.932700 -18.882601 -18.730936 0.397682 -12.648362 53.854599 -13.760900 -73.035400 72.227501 -18.848000 39.989601 20.485800 -16.094801 -48.486301 -24.129827 -3.106055 51.104973 98.287193 14.008946 -17.535667 -17.338982 5.377413 32.570869 -48.727787 -0.496473 -35.920620 68.741219 -6.758904 -12.589283 -25.171833 -7.796557 -28.709433 
